<?xml version="1.0" standalone="no"?>
<!DOCTYPE svg PUBLIC "-//W3C//DTD SVG 20010904//EN"
 "http://www.w3.org/TR/2001/REC-SVG-20010904/DTD/svg10.dtd">
<svg version="1.0" xmlns="http://www.w3.org/2000/svg"
 width="512.000000pt" height="512.000000pt" viewBox="0 0 512.000000 512.000000"
 preserveAspectRatio="xMidYMid meet">

<g transform="translate(0.000000,512.000000) scale(0.100000,-0.100000)"
fill="#000000" stroke="none">
<path d="M2415 4979 c-27 -4 -66 -16 -87 -25 -30 -14 -38 -22 -38 -44 0 -27 0
-27 -107 -40 -496 -58 -874 -294 -1065 -666 -149 -290 -243 -729 -261 -1217
l-4 -118 66 64 c80 76 106 95 199 142 258 129 518 95 980 -130 105 -52 192
-99 192 -105 0 -5 -25 4 -55 21 -30 17 -60 27 -66 23 -8 -5 -9 -3 -4 6 6 9 4
12 -7 8 -8 -3 -67 11 -131 33 -234 77 -510 117 -672 98 -128 -15 -196 -55
-349 -200 -126 -120 -128 -124 -186 -243 -63 -130 -132 -309 -201 -527 l-44
-137 -50 -25 -51 -25 -53 -168 c-122 -387 -251 -810 -251 -826 0 -20 111 -113
119 -100 9 14 260 99 376 128 72 18 147 28 270 34 94 5 211 12 260 15 l90 5
32 -42 c18 -24 95 -113 172 -198 116 -128 140 -160 141 -186 0 -42 33 -81 80
-95 52 -16 107 11 133 64 l19 37 713 0 713 0 19 -38 c12 -24 32 -44 57 -56 36
-17 43 -18 80 -5 31 11 46 24 61 53 11 22 94 136 183 255 90 119 167 222 171
230 7 11 12 11 32 -2 26 -17 85 -23 349 -37 127 -7 203 -16 275 -34 122 -30
355 -111 365 -126 4 -7 24 3 58 29 27 22 53 44 56 49 9 14 -419 1410 -485
1581 -17 45 -34 79 -38 73 -3 -5 -20 -17 -38 -26 l-32 -16 -51 108 c-50 103
-57 112 -185 238 -160 159 -227 198 -363 213 -204 22 -502 -33 -791 -145 -145
-56 -173 -65 -166 -53 4 5 13 9 21 9 8 0 81 33 162 74 180 90 344 156 477 193
126 34 289 38 400 9 166 -43 318 -142 410 -268 l42 -56 6 121 c12 266 -18 676
-62 850 -64 249 -213 533 -378 720 -203 230 -416 319 -883 367 -238 24 -213
18 -206 51 4 23 1 32 -19 45 -54 35 -276 54 -400 33z"/>
<path d="M2080 2930 c30 -16 60 -29 65 -29 6 0 -15 13 -45 29 -30 16 -59 29
-65 29 -5 0 15 -13 45 -29z"/>
</g>
</svg>
